<?xml version="1.0" encoding="utf-8"?>
<!-- Generator: Adobe Illustrator 26.0.3, SVG Export Plug-In . SVG Version: 6.00 Build 0)  -->
<svg version="1.1" id="Layer_1" xmlns="http://www.w3.org/2000/svg" xmlns:xlink="http://www.w3.org/1999/xlink" x="0px" y="0px"
	 viewBox="0 0 500 300" style="enable-background:new 0 0 500 300;" xml:space="preserve">
<style type="text/css">
	.st0{fill:#FFFFFF;}
	.st1{fill:#02BE40;}
	.st2{fill:#02BFD3;}
	.st3{fill:#FE4703;}
	.st4{fill:#030303;}
	.st5{fill:#7D39EC;}
</style>
<g>
	<rect class="st0" width="500" height="301"/>
</g>
<g>
	<g>
		<path class="st1" d="M168.1,200c10.1,0,15.2,7.8,15.2,15.7c0,7.8-5.1,15.6-15.2,15.6h-10.3v15.6H151V200H168.1z M168.1,224.6
			c5.7,0,8.5-4.4,8.5-8.8c0-4.5-2.8-8.9-8.5-8.9h-10.3v17.7H168.1z"/>
		<path class="st2" d="M207,206.8h-8.7v33.4h8.7v6.8h-24.2v-6.8h8.7v-33.4h-8.7v-6.7H207V206.8z"/>
		<path class="st3" d="M217.4,246.9h-6.8V200h5.5l15.5,22.8L247,200h5.4v46.9h-6.7v-33l-12.3,18.2h-3.8l-12.3-18.2V246.9z"/>
		<path d="M349,206.8h-8.7v33.4h8.7v6.8h-24.2v-6.8h8.7v-33.4h-8.7v-6.7H349V206.8z"/>
		<path d="M315.1,200.1h7.2L303.5,247h-5l-18.8-46.9h7.4l13.9,35L315.1,200.1z"/>
	</g>
	<g>
		<path class="st4" d="M239.5,71.9c-0.9-4-0.4-8-0.3-11.9c0-0.9,0.9-1.6,1.7-2.1c2.5-1.4,5.1-2.9,7.6-4.4c1.3-0.8,2.5-0.7,3.8,0.1
			c2.4,1.5,4.9,2.9,7.4,4.3c1.3,0.7,2,1.8,1.9,3.3c-0.1,3.3,0.2,6.6-0.2,9.9c0,0.3-0.2,0.7,0.2,0.9c0.3,0.2,0.5-0.2,0.7-0.3
			c2.8-1.6,5.5-3.2,8.3-4.9c1.4-0.9,2.8-0.9,4.2,0c2.4,1.4,4.8,2.8,7.2,4.2c1.3,0.7,2,1.7,2,3.3c-0.1,2.9,0,5.7,0,8.6
			c0,1.6-0.6,2.7-2,3.5c-2.4,1.3-4.9,2.7-7.3,4.1c-1.5,0.9-2.7,0.8-4.2,0c-3-1.8-6-3.5-9.2-5.4c0,3.4-0.1,6.7,0,10.1
			c0.1,2-0.6,3.4-2.5,4.3c-2.4,1.2-4.7,2.7-7.1,4c-1.2,0.7-2.4,0.7-3.6,0c-2.6-1.5-5.2-3-7.8-4.5c-1.1-0.6-1.7-1.5-1.6-2.8
			c0.1-3.8,0.1-7.6,0.1-11.4c0,0,0,0,0,0c3.1,1.7,6.2,3.4,9.3,5.2c1.3,0.8,2.5,0.8,3.8,0c2.9-1.7,5.9-3.4,8.9-5
			c0.7-0.4,0.6-0.7,0.6-1.2c0-3.6-0.3-7.1,0.1-10.7c0-0.3,0.2-0.7-0.2-0.9c-0.4-0.2-0.6,0.3-0.9,0.4c-2.8,1.6-5.7,3.3-8.5,4.9
			c-1.1,0.7-2.3,0.7-3.4,0c-3.1-1.8-6.1-3.6-9.2-5.5L239.5,71.9L239.5,71.9z"/>
		<path class="st4" d="M239.1,124.4c-0.5-3.6-0.2-7.3-0.3-10.9c0-1.8,0.6-3,2.2-3.8c2.4-1.3,4.7-2.6,7-4c1.4-0.9,2.8-0.8,4.2,0
			c2.3,1.4,4.6,2.8,7,4.1c1.6,0.9,2.2,2,2.1,3.8c-0.1,3.4,0,6.8,0,10.4c3-1.7,5.9-3.3,8.7-5c1.7-1.1,3.2-1.1,4.9,0.1
			c2.8,1.8,6,3.2,8.6,5.3l0,0c0,3.6,0.1,7.3,0.1,10.9c0,1.3-0.5,2.2-1.6,2.8c-2.7,1.6-5.4,3.1-8.2,4.7c-1,0.6-2,0.6-3.1,0
			c-2.7-1.6-5.4-3.2-8.1-4.7c-1.2-0.7-1.6-1.7-1.6-3.1c0-3.6,0-7.3,0-10.9c-2.9,1.7-6,3.4-8.9,5.1c-1.6,1-3,0.9-4.6,0
			C244.9,127.6,242.1,125.6,239.1,124.4L239.1,124.4z"/>
		<path class="st4" d="M283.7,124.4c0-2.6,0.3-5.1,0-7.6c-0.4-4,1-6.4,4.7-8.2c8.3-4.1,5.3-4.4,13.5,0.2c0.9,0.5,1.7,1,2.6,1.5
			c1.4,0.8,2,1.9,2,3.5c-0.1,2.8-0.1,5.6-0.1,8.4c0,1.6-0.7,2.7-2.1,3.5c-2.4,1.3-4.9,2.7-7.3,4.1c-1.4,0.8-2.6,0.9-4,0
			c-2.9-1.9-6.2-3.3-8.9-5.5C284,124,283.8,124.2,283.7,124.4C283.7,124.3,283.7,124.4,283.7,124.4z"/>
		<path class="st4" d="M260.8,162.4c0.9,3.8,0.3,7.7,0.4,11.6c0,1.5-0.6,2.4-1.9,3.1c-2.5,1.4-5.1,2.9-7.6,4.4
			c-1.2,0.7-2.4,0.7-3.6,0c-2.5-1.5-5-3-7.6-4.4c-1.3-0.8-1.9-1.8-1.9-3.3c0-2.9,0.1-5.9,0.1-8.8c0-1.3,0.6-2.3,1.7-3
			c2.6-1.5,5.2-3,7.8-4.5c1.3-0.8,2.6-0.7,3.8,0.1c2.6,1.6,5.3,3.1,7.9,4.7C260.2,162.4,260.4,162.7,260.8,162.4
			C260.8,162.4,260.8,162.4,260.8,162.4z"/>
		<path class="st4" d="M216.5,85.3c0,3.4,0,6.9,0.1,10.3c0,1.5-0.6,2.6-2,3.3c-2.6,1.4-5.1,2.9-7.6,4.3c-1.2,0.7-2.4,0.7-3.6,0
			c-2.5-1.5-5-3-7.6-4.4c-1.3-0.8-1.9-1.8-1.8-3.4c0.1-2.7,0.1-5.4,0-8.2c0-1.8,0.6-3,2.2-3.8c2.5-1.3,4.8-2.7,7.2-4.2
			c0.9-0.5,2-1,2.8-0.5C209.7,80.9,213.5,82.4,216.5,85.3C216.5,85.3,216.5,85.3,216.5,85.3z"/>
		<path class="st4" d="M284.1,143.7c-1.6-5.1,1-7.7,5.3-9.8c6.8-3.4,4.7-3.8,11.4,0.1c6.4,3.7,5.5,2.2,5.6,9.8c0,6.4,0,6.5-5.5,9.6
			c-7,4-4.8,3.6-11.8,0C284.8,151.2,282.5,148.6,284.1,143.7z"/>
		<path class="st4" d="M239,124.3c0,3.5,0,7,0.1,10.5c0,1.6-0.5,2.7-2,3.5c-2.5,1.4-5,2.8-7.4,4.2c-1.3,0.8-2.5,0.8-3.8,0
			c-2.5-1.5-5-3-7.6-4.4c-1.3-0.7-1.8-1.7-1.8-3.1c0-2.9,0-5.9,0-8.8c0-1.5,0.6-2.6,1.9-3.3c2.6-1.4,5.1-2.9,7.6-4.3
			c1.2-0.7,2.3-0.8,3.4-0.1C232.7,120.5,236.1,122.2,239,124.3C239.1,124.4,239,124.3,239,124.3z"/>
		<path class="st4" d="M238.8,156.6c0,0.3-0.1,0.6-0.1,0.9c0.9,4.5-1.5,6.6-5.2,8.5c-7.3,3.8-5,4-12.2-0.2c-5.8-3.3-5.3-2-5.1-9.1
			c0.2-8.2-1.2-5.9,6.3-10.7c3.6-2.3,6.7-2.7,10,0.1c0.3,0.2,0.6,0.4,0.9,0.5C238.1,148.4,240.1,151.6,238.8,156.6z"/>
		<path class="st1" d="M260.8,162.4C260.8,162.4,260.8,162.4,260.8,162.4c0.1-3.3,0.2-6.6,0.2-9.8c0-1.9,0.7-3.1,2.3-3.9
			c2.4-1.2,4.8-2.6,7.1-3.9c1.3-0.7,2.6-0.7,3.8,0.1c2.5,1.6,5,3.1,7.5,4.6c1.3,0.8,1.9,1.9,1.8,3.4c-0.1,2.8-0.1,5.6-0.1,8.4
			c0,1.7-0.7,2.8-2.2,3.6c-2.5,1.3-4.9,2.6-7.3,4c-1.1,0.6-2.2,0.9-3.3,0.2C267.4,166.7,263.8,165.1,260.8,162.4z"/>
		<path class="st5" d="M193.9,116.2c-1.5-4.5,1.7-6.9,6-9c6.5-3.2,4.6-3.5,10.7,0.1c6.9,4.1,6,2.2,5.9,10.6
			c-0.1,6.7,0.7,5.5-5.3,8.9c-7.4,4.1-4.9,4.2-12.3-0.1C193.1,123.1,193.9,124.7,193.9,116.2z"/>
		<path class="st2" d="M239.5,71.9L239.5,71.9c0.1,0.1,0,0.2,0,0.2c-0.5,0-0.5,0.3-0.5,0.7c0,4,0,8,0,12c0,0,0,0,0,0
			c-3,1.8-6.1,3.5-9.1,5.4c-1.5,0.9-2.9,0.9-4.4,0c-2.7-1.7-5.5-3.3-8.2-4.9c-0.3-0.2-0.6-0.4-0.9,0.1c0,0,0,0,0,0
			c1-0.8,0-1.6,0-2.4c0.1-2.9,0.1-5.9,0-8.8c0-1.5,0.6-2.6,1.9-3.3c2.5-1.4,5-2.8,7.4-4.3c1.4-0.8,2.7-0.8,4,0.1
			c2.9,1.8,5.8,3.5,8.6,5.2C238.9,71.9,239.2,72,239.5,71.9z"/>
		<path class="st4" d="M205.2,154.2c-6.2,0-11-4.9-10.9-11.1c0-6.1,5-11,11.1-10.9c6.1,0,11,5,11,11.1
			C216.2,149.4,211.3,154.2,205.2,154.2z"/>
		<path class="st3" d="M295.5,80.6c6,0.1,10.9,5.1,10.8,11.1c0,6.2-5.2,11.2-11.3,11c-6.1-0.2-10.9-5.2-10.8-11.3
			C284.3,85.3,289.4,80.5,295.5,80.6z"/>
	</g>
</g>
</svg>
